<?xml version="1.0" encoding="utf-8"?>
<!-- Generator: Adobe Illustrator 19.0.0, SVG Export Plug-In . SVG Version: 6.00 Build 0)  -->
<svg version="1.1" id="Capa_1" xmlns="http://www.w3.org/2000/svg" xmlns:xlink="http://www.w3.org/1999/xlink" x="0px" y="0px"
	 viewBox="0 0 100 100" style="enable-background:new 0 0 100 100;" xml:space="preserve">
<style type="text/css">
	.st0{fill:#FFFFFF;}
</style>
<path id="XMLID_14_" class="st0" d="M5.8,9.5c-0.5,0-0.9,0.4-0.9,0.9v78.1c0,0.5,0.4,0.9,0.9,0.9H94c0.5,0,0.9-0.4,0.9-0.9V10.4
	c0-0.5-0.4-0.9-0.9-0.9H5.8z M49.9,84.7c-1.2,0-2.2-1-2.2-2.3s1-2.3,2.2-2.3s2.2,1,2.2,2.3S51.1,84.7,49.9,84.7z M85,77
	c0,0.5-0.4,0.9-0.9,0.9H15.7c-0.5,0-0.9-0.4-0.9-0.9V16.4c0-0.5,0.4-0.9,0.9-0.9h68.4c0.5,0,0.9,0.4,0.9,0.9V77z"/>
<path id="XMLID_13_" class="st0" d="M69.2,34.7c0.3,0.2,0.2,0.4-0.2,0.4H57.1c-0.4,0-0.7-0.3-0.7-0.7v-9.2c0-0.4,0.2-0.5,0.5-0.3
	L69.2,34.7z M69.7,37.5v36.3c0,0.4-0.3,0.7-0.7,0.7H30.4c-0.4,0-0.7-0.3-0.7-0.7V25.2c0-0.4,0.3-0.7,0.7-0.7H54
	c0.4,0,0.7,0.3,0.7,0.7v9.9c0,0.4,1.3,1.7,1.7,1.7H69C69.4,36.8,69.7,37.1,69.7,37.5z M43.7,66c0-2.2-1.8-3.9-4-3.9
	c-2.2,0-4,1.8-4,3.9c0,2.2,1.8,3.9,4,3.9C41.9,70,43.7,68.2,43.7,66z M65.9,65.3c0-0.4-0.3-0.8-0.8-0.8H54.5c-0.4,0-0.8,0.3-0.8,0.8
	c0,0.4,0.3,0.8,0.8,0.8h10.6C65.6,66,65.9,65.7,65.9,65.3z M65.9,59c0-0.4-0.3-0.8-0.8-0.8H34.3c-0.4,0-0.8,0.3-0.8,0.8
	c0,0.4,0.3,0.8,0.8,0.8h30.8C65.6,59.8,65.9,59.4,65.9,59z M65.9,54.1c0-0.4-0.3-0.8-0.8-0.8H34.3c-0.4,0-0.8,0.3-0.8,0.8
	c0,0.4,0.3,0.7,0.8,0.7h30.8C65.6,54.9,65.9,54.6,65.9,54.1z M65.9,49.3c0-0.4-0.3-0.8-0.8-0.8H34.3c-0.4,0-0.8,0.3-0.8,0.8
	c0,0.4,0.3,0.8,0.8,0.8h30.8C65.6,50,65.9,49.7,65.9,49.3z M65.9,44.4c0-0.4-0.3-0.8-0.8-0.8H34.3c-0.4,0-0.8,0.3-0.8,0.8
	c0,0.4,0.3,0.8,0.8,0.8h30.8C65.6,45.2,65.9,44.9,65.9,44.4z"/>
</svg>
