<?xml version="1.0" encoding="utf-8"?>
<!-- Generator: Adobe Illustrator 19.0.0, SVG Export Plug-In . SVG Version: 6.00 Build 0)  -->
<svg version="1.1" id="Capa_1" xmlns="http://www.w3.org/2000/svg" xmlns:xlink="http://www.w3.org/1999/xlink" x="0px" y="0px"
	 viewBox="0 0 100 100" style="enable-background:new 0 0 100 100;" xml:space="preserve">
<style type="text/css">
	.st0{fill:#FFFFFF;}
</style>
<path id="XMLID_4_" class="st0" d="M94.4,68.6c0.5,0,0.9-0.4,0.9-0.9V16.3c0-0.5-0.4-0.9-0.9-0.9H6.2c-0.5,0-0.9,0.4-0.9,0.9v51.4
	c0,0.5,0.4,0.9,0.9,0.9h37.2c0.5,0,0.9,0.4,0.9,0.9v11c0,0.5-0.4,0.9-0.9,0.9H32.5c-0.5,0-0.9,0.4-0.9,0.9v2.3
	c0,0.5,0.4,0.9,0.9,0.9h34.1c0.5,0,0.9-0.4,0.9-0.9v-2.3c0-0.5-0.4-0.9-0.9-0.9h-9.4c-0.5,0-0.9-0.4-0.9-0.9v-11
	c0-0.5,0.4-0.9,0.9-0.9H94.4z M10.2,21.1c0-0.5,0.4-0.9,0.9-0.9h78.5c0.5,0,0.9,0.4,0.9,0.9v41.8c0,0.5-0.4,0.9-0.9,0.9H11.1
	c-0.5,0-0.9-0.4-0.9-0.9V21.1z"/>
<path id="XMLID_14_" class="st0" d="M20.1,24.3c-0.3,0-0.6,0.2-0.6,0.6v33.9c0,0.3,0.3,0.6,0.6,0.6h58.8c0.3,0,0.6-0.3,0.6-0.6V24.9
	c0-0.3-0.3-0.6-0.6-0.6H20.1z M77.2,26c0.3,0,0.6,0.2,0.6,0.6v4.4c0,0.3-0.3,0.6-0.6,0.6H21.9c-0.3,0-0.6-0.2-0.6-0.6v-4.4
	c0-0.3,0.3-0.6,0.6-0.6H77.2z M21.9,57.7c-0.3,0-0.6-0.3-0.6-0.6V40.9c0-0.3,0.3-0.6,0.6-0.6h55.3c0.3,0,0.6,0.2,0.6,0.6v16.2
	c0,0.3-0.3,0.6-0.6,0.6H21.9z M44.6,51.4c0,0.3-0.3,0.6-0.6,0.6H23.8c-0.3,0-0.6-0.3-0.6-0.6v-6.7c0-0.3,0.3-0.6,0.6-0.6H44
	c0.3,0,0.6,0.3,0.6,0.6V51.4z M75.9,44.4c0-0.1-0.3-0.2-0.6-0.2H55.1c-0.3,0-0.6,0.1-0.6,0.2c0,0.1,0.3,0.2,0.6,0.2h20.2
	C75.6,44.6,75.9,44.5,75.9,44.4z M75.9,45.9c0,0.1-0.3,0.2-0.6,0.2H55.1c-0.3,0-0.6-0.1-0.6-0.2c0-0.1,0.3-0.2,0.6-0.2h20.2
	C75.6,45.7,75.9,45.8,75.9,45.9z M75.9,47.5c0,0.1-0.3,0.2-0.6,0.2H55.1c-0.3,0-0.6-0.1-0.6-0.2s0.3-0.2,0.6-0.2h20.2
	C75.6,47.2,75.9,47.3,75.9,47.5z M75.9,49c0,0.1-0.3,0.2-0.6,0.2H55.1c-0.3,0-0.6-0.1-0.6-0.2c0-0.1,0.3-0.2,0.6-0.2h20.2
	C75.6,48.8,75.9,48.9,75.9,49z M66.1,50.5c0,0.1-0.3,0.2-0.6,0.2H55.1c-0.3,0-0.6-0.1-0.6-0.2c0-0.1,0.3-0.2,0.6-0.2h10.4
	C65.8,50.3,66.1,50.4,66.1,50.5z"/>
</svg>
