<?xml version="1.0" encoding="utf-8"?>
<!-- Generator: Adobe Illustrator 19.0.0, SVG Export Plug-In . SVG Version: 6.00 Build 0)  -->
<svg version="1.1" id="Capa_1" xmlns="http://www.w3.org/2000/svg" xmlns:xlink="http://www.w3.org/1999/xlink" x="0px" y="0px"
	 viewBox="0 0 100 100" style="enable-background:new 0 0 100 100;" xml:space="preserve">
<style type="text/css">
	.st0{fill:#FFFFFF;}
</style>
<path id="XMLID_2_" class="st0" d="M45.7,32.3c-9.4-6.2-19.5-6.4-34-6.2l0-0.9c14.6-0.3,24.9,0,34.5,6.3L45.7,32.3z M46.2,35.1
	c-9.6-6.3-19.9-6.6-34.5-6.3l0,0.9c14.4-0.3,24.6,0,34,6.2L46.2,35.1z M46.2,38.6c-9.6-6.3-19.9-6.6-34.5-6.3l0,0.9
	c14.4-0.3,24.6,0,34,6.2L46.2,38.6z M46.2,42.2c-9.6-6.3-19.9-6.6-34.5-6.3l0,0.9c14.4-0.3,24.6,0,34,6.2L46.2,42.2z M46.2,45.8
	c-9.6-6.3-19.9-6.6-34.5-6.3l0,0.9c14.4-0.3,24.6,0,34,6.2L46.2,45.8z M46.2,49.4c-9.6-6.3-19.9-6.6-34.5-6.3l0,0.9
	c14.4-0.3,24.6,0,34,6.2L46.2,49.4z M46.2,53c-9.6-6.3-19.9-6.6-34.5-6.3l0,0.9c14.4-0.3,24.6,0,34,6.2L46.2,53z M46.2,56.5
	c-9.6-6.3-19.9-6.6-34.5-6.3l0,0.9c14.4-0.3,24.6,0,34,6.2L46.2,56.5z M46.2,60.1c-9.6-6.3-19.9-6.6-34.5-6.3l0,0.9
	c14.4-0.3,24.6,0,34,6.2L46.2,60.1z M46.2,63.7c-9.6-6.3-19.9-6.6-34.5-6.3l0,0.9c14.4-0.3,24.6,0,34,6.2L46.2,63.7z M46.2,67.3
	C36.6,61,26.3,60.7,11.7,61l0,0.9c14.4-0.3,24.6,0,34,6.2L46.2,67.3z M46.2,70.9c-9.6-6.3-19.9-6.6-34.5-6.3l0,0.9
	c14.4-0.3,24.6,0,34,6.2L46.2,70.9z M53.8,30.9c9.6-6.3,19.9-6.6,34.5-6.3l0,0.9c-14.4-0.3-24.6,0-34,6.2L53.8,30.9z M54.3,35.3
	c9.4-6.2,19.5-6.5,34-6.2l0-0.9c-14.6-0.3-24.9,0-34.5,6.3L54.3,35.3z M54.3,38.9c9.4-6.2,19.5-6.5,34-6.2l0-0.9
	c-14.6-0.3-24.9,0-34.5,6.3L54.3,38.9z M54.3,42.5c9.4-6.2,19.5-6.5,34-6.2l0-0.9c-14.6-0.3-24.9,0-34.5,6.3L54.3,42.5z M54.3,46
	c9.4-6.2,19.5-6.5,34-6.2l0-0.9c-14.6-0.3-24.9,0-34.5,6.3L54.3,46z M54.3,49.6c9.4-6.2,19.5-6.5,34-6.2l0-0.9
	c-14.6-0.3-24.9,0-34.5,6.3L54.3,49.6z M54.3,53.2c9.4-6.2,19.5-6.5,34-6.2l0-0.9c-14.6-0.3-24.9,0-34.5,6.3L54.3,53.2z M54.3,56.8
	c9.4-6.2,19.5-6.5,34-6.2l0-0.9c-14.6-0.3-24.9,0-34.5,6.3L54.3,56.8z M54.3,60.3c9.4-6.2,19.5-6.4,34-6.2l0-0.9
	c-14.6-0.3-24.9,0-34.5,6.3L54.3,60.3z M54.3,63.9c9.4-6.2,19.5-6.5,34-6.2l0-0.9c-14.6-0.3-24.9,0-34.5,6.3L54.3,63.9z M54.3,67.5
	c9.4-6.2,19.5-6.4,34-6.2l0-0.9c-14.6-0.3-24.9,0-34.5,6.3L54.3,67.5z M54.3,71.1c9.4-6.2,19.5-6.4,34-6.2l0-0.9
	c-14.6-0.3-24.9,0-34.5,6.3L54.3,71.1z M7,73.7V26.4c-0.7,0-1.3,0-2,0v51.2c10.1-0.1,29.7-2.5,44.6,2.1C38.3,70.7,16.6,73.7,7,73.7z
	 M93,26.4v47.3c-9.6,0-31.3-3-42.5,6.1c14.9-4.6,34.5-2.2,44.6-2.1V26.5C94.3,26.4,93.7,26.4,93,26.4z M50.8,78.2
	c5.3-4.4,13.5-6.5,25.7-6.5c3.5,0,6.8,0.2,9.7,0.3c2.2,0.1,4,0.2,5.6,0.2l0.6,0V19.9h-0.5c-2.4,0-4.8-0.1-7.1-0.1
	c-14,0-24.6,1.3-34.5,7.8l0,0l-0.2-0.1c-9.7-6.4-20.2-7.7-34-7.7c-2.6,0-5.3,0-7.6,0.1H7.7v52.4l0.6,0c1.6,0,3.5-0.1,5.6-0.2
	c2.9-0.1,6.2-0.3,9.7-0.3c12.2,0,20.3,2.1,25.7,6.5l0.3,0.3l0,1.3l0-1.3l0.3,0.3V79l0.1-0.1l0.1,0.1v-0.2l0.3-0.3l0,1.3l0-1.3
	L50.8,78.2z M49,39.5v37.2c-7.3-5.4-17.9-6-25.5-6c-3.5,0-6.8,0.2-9.7,0.3c-1.9,0.1-3.6,0.2-5,0.2V21c2.2,0,4.6-0.1,7-0.1
	c13.5,0,23.7,1.2,33.2,7.4v9.6L49,33.7c0,0,0,0,0,0L49,39.5z M51,28.4c9.6-6.2,20-7.5,33.6-7.5c2.1,0,4.3,0,6.5,0.1v50.1
	c-1.4,0-3.1-0.1-5-0.2c-2.9-0.1-6.2-0.3-9.7-0.3c-7.5,0-18.2,0.6-25.5,6V39.5l0.1-5.8c0,0,0,0,0,0L51,37.9V28.4z"/>
</svg>
