<?xml version="1.0" encoding="utf-8"?>
<!-- Generator: Adobe Illustrator 19.0.0, SVG Export Plug-In . SVG Version: 6.00 Build 0)  -->
<svg version="1.1" id="Capa_1" xmlns="http://www.w3.org/2000/svg" xmlns:xlink="http://www.w3.org/1999/xlink" x="0px" y="0px"
	 viewBox="0 0 100 100" style="enable-background:new 0 0 100 100;" xml:space="preserve">
<style type="text/css">
	.st0{fill:#FFFFFF;}
</style>
<g id="XMLID_59_">
	<g id="XMLID_60_">
		<path id="XMLID_61_" class="st0" d="M83.2,25.6c1.6-1.7,2.5-3.9,2.5-6.3c0-5-4-9-8.9-9c-4.9,0-8.9,4-8.9,9c0,2.4,0.9,4.6,2.5,6.3
			v1.4H68v2.6h17.8v-2.6h-2.5L83.2,25.6L83.2,25.6z M81.6,23.6c-0.2,0.2-0.3,0.3-0.5,0.5c-0.3,0.2-0.4,0.6-0.4,1v2h-2.5v-3.3
			l3.4-3.5l-1.8-1.8l-2.9,2.9L74,18.5l-1.8,1.8l3.4,3.5v3.3h-2.5v-2c0-0.4-0.2-0.7-0.4-1c-2.6-2.4-2.8-6.4-0.5-9.1
			c2.3-2.6,6.4-2.9,9-0.5C83.7,16.9,84,21,81.6,23.6z"/>
	</g>
</g>
<g id="XMLID_43_">
	<g id="XMLID_44_">
		<path id="XMLID_45_" class="st0" d="M87.1,61.7c0.7,0,1.3-0.6,1.3-1.3V33.5c0-0.7-0.6-1.3-1.3-1.3H65.4v-7.7
			c0-0.7-0.6-1.3-1.3-1.3h-3.8V11.7c0-0.7-0.6-1.3-1.3-1.3H13.3c-0.7,0-1.3,0.6-1.3,1.3v69.3c0,0.7,0.6,1.3,1.3,1.3h3.8v3.8
			c0,0.7,0.6,1.3,1.3,1.3h45.8c0.7,0,1.3-0.6,1.3-1.3v-3.8h15.3v2.6h-8.9v2.6H82c0.7,0,1.3-0.6,1.3-1.3v-3.8h3.8
			c0.7,0,1.3-0.6,1.3-1.3v-5.1c0-0.7-0.6-1.3-1.3-1.3H65.4v-2.6h19.1c2.1,0,3.8-1.7,3.8-3.8s-1.7-3.8-3.8-3.8H65.4v-2.6H87.1z
			 M83.2,77.1h2.5v2.6h-2.5V77.1z M85.7,34.8c-0.6,3-3.2,5.1-6.2,5.1H46.3c-3,0-5.6-2.1-6.2-5.1H85.7z M57.7,13
			c-0.6,3-3.2,5.1-6.2,5.1H20.9c-3,0-5.6-2.1-6.2-5.1C14.7,13,57.7,13,57.7,13z M57.8,17.9v5.3H37.4v-2.6h14
			C53.8,20.6,56.1,19.7,57.8,17.9z M17.1,24.5v55.1h-2.5V17.9c1.7,1.7,4,2.7,6.4,2.7h14v2.6H18.4C17.7,23.2,17.1,23.8,17.1,24.5z
			 M62.9,84.8H19.6v-59h43.3v6.4H38.7c-0.7,0-1.3,0.6-1.3,1.3v26.9c0,0.7,0.6,1.3,1.3,1.3h24.2v2.6H43.8c-0.2,0-0.4,0-0.6,0.1
			l-5.1,2.6c-0.6,0.3-0.9,1.1-0.6,1.7c0.1,0.2,0.3,0.5,0.6,0.6l5.1,2.6c0.2,0.1,0.4,0.1,0.6,0.1h19.1v2.6H43.8c-0.2,0-0.4,0-0.6,0.1
			l-5.1,2.6c-0.6,0.3-0.9,1.1-0.6,1.7c0.1,0.2,0.3,0.5,0.6,0.6l5.1,2.6c0.2,0.1,0.4,0.1,0.6,0.1h19.1V84.8z M43.8,67v2.3l-2.2-1.1
			L43.8,67z M80.7,77.1v2.6H44.1l-2.5-1.3l2.5-1.3H80.7z M80.7,66.8h3.8c0.7,0,1.3,0.6,1.3,1.3s-0.6,1.3-1.3,1.3h-3.8V66.8z
			 M75.6,66.8h2.5v2.6h-2.5V66.8z M73.1,66.8v2.6H46.3v-2.6H73.1z M40,59.1V39.7c1.7,1.7,4,2.7,6.4,2.7h33.1c2.4,0,4.7-1,6.4-2.7
			v19.4H40z"/>
	</g>
</g>
<g id="XMLID_40_">
	<g id="XMLID_41_">
		<rect id="XMLID_7_" x="42.5" y="48.9" class="st0" width="2.5" height="2.6"/>
	</g>
</g>
<g id="XMLID_37_">
	<g id="XMLID_38_">
		<rect id="XMLID_6_" x="48.9" y="48.9" class="st0" width="16.5" height="2.6"/>
	</g>
</g>
<g id="XMLID_34_">
	<g id="XMLID_35_">
		<rect id="XMLID_5_" x="48.9" y="54" class="st0" width="11.4" height="2.6"/>
	</g>
</g>
<g id="XMLID_27_">
	<g id="XMLID_28_">
		<path id="XMLID_29_" class="st0" d="M33.6,64.2H23.4c-0.7,0-1.3,0.6-1.3,1.3v15.4c0,0.7,0.6,1.3,1.3,1.3h10.2
			c0.7,0,1.3-0.6,1.3-1.3V65.5C34.9,64.8,34.3,64.2,33.6,64.2z M32.4,79.6h-7.6v-7.7h7.6V79.6z M32.4,69.4h-7.6v-2.6h7.6V69.4z"/>
	</g>
</g>
<g id="XMLID_24_">
	<g id="XMLID_25_">
		<rect id="XMLID_1_" x="27.3" y="74.5" class="st0" width="2.5" height="2.6"/>
	</g>
</g>
</svg>
