<?xml version="1.0" encoding="utf-8"?>
<!-- Generator: Adobe Illustrator 19.0.0, SVG Export Plug-In . SVG Version: 6.00 Build 0)  -->
<svg version="1.1" id="Capa_1" xmlns="http://www.w3.org/2000/svg" xmlns:xlink="http://www.w3.org/1999/xlink" x="0px" y="0px"
	 viewBox="0 0 100 100" style="enable-background:new 0 0 100 100;" xml:space="preserve">
<style type="text/css">
	.st0{fill:#FFFFFF;}
</style>
<path id="XMLID_5_" class="st0" d="M94.9,78.7c0,0.4-0.4,0.8-0.9,0.8H5.8c-0.5,0-0.9-0.3-0.9-0.8V20.2c0-0.4,0.4-0.8,0.9-0.8H94
	c0.5,0,0.9,0.3,0.9,0.8V78.7z M6.7,77.2c0,0.4,0.4,0.8,0.9,0.8h84.6c0.5,0,0.9-0.3,0.9-0.8V21.7c0-0.4-0.4-0.8-0.9-0.8H7.6
	c-0.5,0-0.9,0.3-0.9,0.8V77.2z M90.8,52.6c0-0.4-0.3-1-0.6-1.3L69.9,31.8c-0.3-0.3-0.9-0.3-1.2,0L43.4,52.5c-0.4,0.3-1,0.4-1.5,0.2
	l-16.6-6.6c-0.4-0.2-1.1-0.1-1.5,0.2L9.6,56.4c-0.4,0.3-0.7,0.8-0.7,1.2v17.5c0,0.4,0.4,0.7,0.9,0.7h80.1c0.5,0,0.9-0.3,0.9-0.7
	V52.6z"/>
</svg>
