<?xml version="1.0" encoding="utf-8"?>
<!-- Generator: Adobe Illustrator 19.0.0, SVG Export Plug-In . SVG Version: 6.00 Build 0)  -->
<svg version="1.1" id="Capa_1" xmlns="http://www.w3.org/2000/svg" xmlns:xlink="http://www.w3.org/1999/xlink" x="0px" y="0px"
	 viewBox="0 0 100 100" style="enable-background:new 0 0 100 100;" xml:space="preserve">
<style type="text/css">
	.st0{fill:#FFFFFF;}
</style>
<path id="XMLID_11_" class="st0" d="M72.5,19.7c-1,0-1.8-0.8-1.8-1.8V7c0-1-0.8-1.8-1.8-1.8H31.4c-1,0-1.8,0.8-1.8,1.8v11
	c0,1-0.8,1.8-1.8,1.8H7c-1,0-1.8,0.8-1.8,1.8v20c0,1,0.8,1.8,1.8,1.8h86.4c1,0,1.8-0.8,1.8-1.8v-20c0-1-0.8-1.8-1.8-1.8H72.5z
	 M35.5,12.9c0-1,0.8-1.8,1.8-1.8H63c1,0,1.8,0.8,1.8,1.8V18c0,1-0.8,1.8-1.8,1.8H37.3c-1,0-1.8-0.8-1.8-1.8V12.9z M55.8,50.3
	c0-1,0.8-1.8,1.8-1.8h35.7c1,0,1.8,0.8,1.8,1.8v43.2c0,1-0.8,1.8-1.8,1.8H7c-1,0-1.8-0.8-1.8-1.8V50.3c0-1,0.8-1.8,1.8-1.8h35.7
	c1,0,1.8,0.8,1.8,1.8v10c0,1,0.8,1.8,1.8,1.8H54c1,0,1.8-0.8,1.8-1.8V50.3z"/>
</svg>
