<?xml version="1.0" encoding="utf-8"?>
<!-- Generator: Adobe Illustrator 19.0.0, SVG Export Plug-In . SVG Version: 6.00 Build 0)  -->
<svg version="1.1" id="Capa_1" xmlns="http://www.w3.org/2000/svg" xmlns:xlink="http://www.w3.org/1999/xlink" x="0px" y="0px"
	 viewBox="0 0 612 792" style="enable-background:new 0 0 612 792;" xml:space="preserve">
<style type="text/css">
	.st0{fill:#FFFFFF;}
	.st1{fill:#F7F8F8;}
</style>
<path id="XMLID_9_" class="st0" d="M513.1,138.3C426.4,64,296.8,75.2,223.6,163.4c-69,83.1-63.1,205.1,10.7,281l-30.9,37.2l-2.2-1.9
	c-3.8-3.2-9.6-2.7-12.8,1.2L26,676.6c-3.2,3.9-2.8,9.7,1,12.9l33.6,28.8c3.8,3.2,9.6,2.7,12.7-1.2l162.4-195.7
	c3.2-3.9,2.7-9.6-1-12.9l-2.2-1.9l30.8-37.2c86.2,61,205.4,46.3,274.4-36.8C610.9,344.4,599.9,212.7,513.1,138.3z M506.7,405.9
	C448,476.7,344,485.7,274.4,426c-69.6-59.6-78.4-165.3-19.7-236c58.6-70.7,162.6-79.7,232.2-20C556.5,229.6,565.3,335.2,506.7,405.9
	z"/>
<g>
	<path class="st1" d="M331.3,356.4c-11.1,0-20.2,9-20.2,20.2c0,3.1,0.7,6.2,2,8.8c0.1,0.2,0.4,0.7,0.7,1.1c2,2.9,6.4,9.5,7,17h20.8
		c0.4-5.4,3-11.4,7.5-17.8c0.1-0.2,0.3-0.4,0.3-0.5c1.3-2.2,2-5,2-8.7C351.5,365.4,342.4,356.4,331.3,356.4z M328.9,362.7
		c-4.5,0.7-7.6,2.9-9.4,6.4c-1.3,2.6-1.3,5.1-1.3,5.2c0,0.8-0.7,1.5-1.5,1.5h0c-0.8,0-1.5-0.7-1.5-1.5c0-0.1,0-3.2,1.6-6.5
		c1.5-3.1,4.8-7,11.6-8.1c0.8-0.1,1.6,0.4,1.7,1.2C330.2,361.8,329.7,362.6,328.9,362.7z"/>
	<path class="st1" d="M477.3,244.1c-15.8,0-30.1,6.5-40.3,17l-44.5-34.2c3-6.9,4.8-14.6,4.8-22.6c0-31.2-25.3-56.5-56.5-56.5
		c-31.2,0-56.5,25.3-56.5,56.5s25.3,56.5,56.5,56.5c14.4,0,27.5-5.5,37.5-14.3l45.9,35.3c-2.1,5.9-3.3,12.3-3.3,19
		c0,8.6,2,16.8,5.4,24.1l-46.6,24.9c-10.1-15.2-27.4-25.2-47-25.2c-31.2,0-56.5,25.3-56.5,56.5c0,31.2,25.3,56.5,56.5,56.5
		c31.2,0,56.5-25.3,56.5-56.5c0-3-0.3-5.8-0.7-8.7l52.7-28.2c9.8,8.2,22.4,13.1,36.1,13.1c31.2,0,56.5-25.3,56.5-56.5
		C533.7,269.3,508.5,244.1,477.3,244.1z M306.5,226.3c0,0.8-1,1.5-2.3,1.5h-3.6c-1.3,0-2.3-0.7-2.3-1.5v-13.6c0-0.9,1-1.5,2.3-1.5
		h3.6c1.3,0,2.3,0.7,2.3,1.5V226.3z M319.1,226.3c0,0.8-1,1.5-2.3,1.5h-3.6c-1.3,0-2.3-0.7-2.3-1.5v-22.6c0-0.8,1-1.5,2.3-1.5h3.6
		c1.3,0,2.3,0.7,2.3,1.5V226.3z M331.7,226.3c0,0.8-1,1.5-2.3,1.5h-3.6c-1.3,0-2.3-0.7-2.3-1.5v-32.1c0-0.8,1-1.5,2.3-1.5h3.6
		c1.3,0,2.3,0.7,2.3,1.5V226.3z M344.3,226.3c0,0.8-1,1.5-2.3,1.5h-3.6c-1.3,0-2.3-0.7-2.3-1.5V186c0-0.9,1-1.5,2.3-1.5h3.6
		c1.3,0,2.3,0.7,2.3,1.5V226.3z M356.9,226.3c0,0.8-1,1.5-2.3,1.5H351c-1.3,0-2.3-0.7-2.3-1.5V178c0-0.8,1-1.5,2.3-1.5h3.6
		c1.3,0,2.3,0.7,2.3,1.5V226.3z M369.4,226.3c0,0.8-1,1.5-2.3,1.5h-3.6c-1.3,0-2.3-0.7-2.3-1.5v-55.6c0-0.9,1-1.5,2.3-1.5h3.6
		c1.3,0,2.3,0.7,2.3,1.5V226.3z M345.5,348.8l6.5-11.2c0.4-0.6,1.2-0.9,1.8-0.5h0c0.6,0.4,0.9,1.2,0.5,1.8l-6.5,11.2
		c-0.4,0.6-1.2,0.9-1.8,0.5C345.4,350.2,345.1,349.4,345.5,348.8z M329.1,332.6c0-0.7,0.6-1.3,1.3-1.3c0.7,0,1.3,0.6,1.3,1.3v13
		c0,0.7-0.6,1.3-1.3,1.3c-0.7,0-1.3-0.6-1.3-1.3V332.6z M290.7,355.2c0.4-0.6,1.2-0.9,1.8-0.5l11.2,6.5c0.6,0.4,0.9,1.2,0.5,1.8
		c-0.4,0.6-1.2,0.9-1.8,0.5l-11.2-6.5C290.5,356.7,290.3,355.8,290.7,355.2z M284.9,378.6c0-0.7,0.6-1.3,1.3-1.3h13
		c0.7,0,1.3,0.6,1.3,1.3c0,0.7-0.6,1.3-1.3,1.3h-13C285.5,379.9,284.9,379.3,284.9,378.6z M304.6,395.7l-11.2,6.5
		c-0.6,0.4-1.5,0.2-1.8-0.5c-0.4-0.6-0.2-1.5,0.5-1.8l11.2-6.5c0.6-0.4,1.5-0.2,1.8,0.5S305.2,395.3,304.6,395.7z M307.3,337.9
		c0.6-0.4,1.5-0.2,1.8,0.5l6.5,11.2c0.4,0.6,0.2,1.5-0.5,1.8c-0.6,0.4-1.5,0.2-1.8-0.5l-6.5-11.2
		C306.5,339.1,306.7,338.3,307.3,337.9z M331.3,428c-5.3,0-9.6-3.2-9.6-7.1h19.2C340.9,424.8,336.6,428,331.3,428z M344.9,416.9
		c0,1-0.8,1.7-1.7,1.7h-23.7c-1,0-1.7-0.8-1.7-1.7v-0.3c0-1,0.8-1.7,1.7-1.7h23.7c1,0,1.7,0.8,1.7,1.7V416.9z M344.9,411.1
		c0,1-0.8,1.7-1.7,1.7h-23.7c-1,0-1.7-0.8-1.7-1.7v-0.3c0-1,0.8-1.7,1.7-1.7h23.7c1,0,1.7,0.8,1.7,1.7V411.1z M352.5,387
		c-0.1,0.2-0.2,0.3-0.5,0.7c-4.6,6.5-6.9,12.4-6.9,17.5v1.7h-27.5v-1.7c0-7.2-4.6-13.9-6.5-16.8c-0.5-0.7-0.8-1.2-1-1.5
		c-1.6-3.1-2.4-6.7-2.4-10.4c0-13,10.6-23.6,23.6-23.6c13,0,23.6,10.6,23.6,23.6C354.9,380.9,354.1,384.3,352.5,387z M357.6,361.5
		c-0.4-0.6-0.2-1.5,0.5-1.8l11.2-6.5c0.6-0.4,1.5-0.2,1.8,0.5c0.4,0.6,0.2,1.5-0.5,1.8l-11.2,6.5C358.8,362.4,358,362.2,357.6,361.5
		z M372,400.2c-0.4,0.6-1.2,0.9-1.8,0.5l-11.2-6.5c-0.6-0.4-0.9-1.2-0.5-1.8s1.2-0.9,1.8-0.5l11.2,6.5
		C372.2,398.7,372.4,399.5,372,400.2z M376.5,378.2h-13c-0.7,0-1.3-0.6-1.3-1.3c0-0.7,0.6-1.3,1.3-1.3h13c0.7,0,1.3,0.6,1.3,1.3
		C377.8,377.6,377.2,378.2,376.5,378.2z M476.1,343.1c-20.1,0-36.5-16.9-36.5-37.6c0-20.7,16.4-37.6,36.5-37.6
		c9.1,0,17.8,3.5,24.6,9.8l-4.9,5.5c-5.4-5-12.4-7.8-19.7-7.8c-16.1,0-29.3,13.5-29.3,30.1c0,16.6,13.1,30.1,29.3,30.1
		c16.1,0,29.3-13.5,29.3-30.1c0-2.2-0.2-4.4-0.7-6.5l7.1-1.6c0.6,2.6,0.9,5.4,0.9,8.1C512.7,326.2,496.3,343.1,476.1,343.1z
		 M485.1,318.4l-3.7,6.6l-2.8-7.1c-0.1-0.1-6.1-14.9-15-20.7l3.9-6.3c6.7,4.4,11.8,12.3,14.8,17.9c5.6-8.8,17.2-25.3,30.1-32.9
		l3.6,6.5C500,291.9,485.2,318.1,485.1,318.4z"/>
</g>
</svg>
