<?xml version="1.0" encoding="utf-8"?>
<!-- Generator: Adobe Illustrator 19.0.0, SVG Export Plug-In . SVG Version: 6.00 Build 0)  -->
<svg version="1.1" id="Capa_1" xmlns="http://www.w3.org/2000/svg" xmlns:xlink="http://www.w3.org/1999/xlink" x="0px" y="0px"
	 viewBox="0 0 100 100" style="enable-background:new 0 0 100 100;" xml:space="preserve">
<style type="text/css">
	.st0{fill:#FFFFFF;}
</style>
<g id="XMLID_5_">
	<g id="XMLID_43_">
		<path id="XMLID_44_" class="st0" d="M95.1,82.2c0,0.1-0.1,0.1-0.1,0.1l-24.5-7.6c-0.1,0-0.1,0-0.1,0.1v14.8c0,0.1-0.1,0.1-0.1,0.1
			h-65c-0.1,0-0.1-0.1-0.1-0.1V40.1C5.1,40,5.2,40,5.2,40h65c0.1,0,0.1,0.1,0.1,0.1v14.8c0,0.1,0.1,0.1,0.1,0.1L95,47.4
			c0.1,0,0.1,0,0.1,0.1V82.2z M19.1,9.7c-7.7,0-14,6.3-14,14c0,7.8,6.3,14,14,14s14-6.3,14-14C33.1,16,26.8,9.7,19.1,9.7z M48.2,9.7
			c-7.7,0-14,6.3-14,14c0,7.8,6.3,14,14,14c7.7,0,14-6.3,14-14C62.2,16,55.9,9.7,48.2,9.7z"/>
	</g>
</g>
</svg>
