<?xml version="1.0" encoding="utf-8"?>
<!-- Generator: Adobe Illustrator 19.0.0, SVG Export Plug-In . SVG Version: 6.00 Build 0)  -->
<svg version="1.1" id="Capa_1" xmlns="http://www.w3.org/2000/svg" xmlns:xlink="http://www.w3.org/1999/xlink" x="0px" y="0px"
	 viewBox="0 0 200 200" style="enable-background:new 0 0 200 200;" xml:space="preserve">
<style type="text/css">
	.st0{fill:#010202;stroke:#6DC6D9;stroke-width:3;stroke-miterlimit:10;}
	.st1{fill:#FFFFFF;stroke:#6DC6D9;stroke-width:3;stroke-miterlimit:10;}
</style>
<polygon id="XMLID_32_" class="st0" points="127.6,124.1 89.3,146.2 50.9,124.1 50.9,79.9 89.3,57.7 127.6,79.9 "/>
<path id="XMLID_31_" class="st0" d="M89.3,102l38.3-22.1L89.3,102z"/>
<path id="XMLID_30_" class="st0" d="M89.3,102L50.9,79.9L89.3,102z"/>
<path id="XMLID_29_" class="st0" d="M89.3,146.2V102V146.2z"/>
<polygon id="XMLID_28_" class="st1" points="174.8,150.7 136.5,172.8 98.1,150.7 98.1,106.4 136.5,84.3 174.8,106.4 "/>
<path id="XMLID_27_" class="st0" d="M136.5,128.5l38.3-22.1L136.5,128.5z"/>
<path id="XMLID_26_" class="st0" d="M136.5,128.5l-38.3-22.1L136.5,128.5z"/>
<path id="XMLID_25_" class="st0" d="M136.5,172.8v-44.3V172.8z"/>
<polygon id="XMLID_24_" class="st1" points="80.4,150.7 42.1,172.8 3.8,150.7 3.8,106.4 42.1,84.3 80.4,106.4 "/>
<path id="XMLID_23_" class="st0" d="M42.1,128.5l38.3-22.1L42.1,128.5z"/>
<path id="XMLID_22_" class="st0" d="M42.1,128.5L3.8,106.4L42.1,128.5z"/>
<path id="XMLID_21_" class="st0" d="M42.1,172.8v-44.3V172.8z"/>
<polygon id="XMLID_20_" class="st1" points="127.6,178.1 89.3,200.2 50.9,178.1 50.9,133.9 89.3,111.7 127.6,133.9 "/>
<path id="XMLID_19_" class="st0" d="M89.3,156l38.3-22.1L89.3,156z"/>
<path id="XMLID_18_" class="st0" d="M89.3,156l-38.3-22.1L89.3,156z"/>
<path id="XMLID_17_" class="st0" d="M89.3,200.2V156V200.2z"/>
<polygon id="XMLID_16_" class="st1" points="127.6,69.6 89.3,91.8 50.9,69.6 50.9,25.4 89.3,3.2 127.6,25.4 "/>
<path id="XMLID_15_" class="st0" d="M89.3,47.5l38.3-22.1L89.3,47.5z"/>
<path id="XMLID_14_" class="st0" d="M89.3,47.5L50.9,25.4L89.3,47.5z"/>
<path id="XMLID_13_" class="st0" d="M89.3,91.8V47.5V91.8z"/>
<polygon id="XMLID_12_" class="st1" points="174.8,96.2 136.5,118.3 98.1,96.2 98.1,51.9 136.5,29.8 174.8,51.9 "/>
<path id="XMLID_11_" class="st0" d="M136.5,74.1l38.3-22.1L136.5,74.1z"/>
<path id="XMLID_10_" class="st0" d="M136.5,74.1L98.1,51.9L136.5,74.1z"/>
<path id="XMLID_9_" class="st0" d="M136.5,118.3V74.1V118.3z"/>
<polygon id="XMLID_8_" class="st1" points="80.4,96.2 42.1,118.3 3.8,96.2 3.8,51.9 42.1,29.8 80.4,51.9 "/>
<path id="XMLID_7_" class="st0" d="M42.1,74.1l38.3-22.1L42.1,74.1z"/>
<path id="XMLID_6_" class="st0" d="M42.1,74.1L3.8,51.9L42.1,74.1z"/>
<path id="XMLID_5_" class="st0" d="M42.1,118.3V74.1V118.3z"/>
<polygon id="XMLID_4_" class="st1" points="127.6,123.6 89.3,145.8 50.9,123.6 50.9,79.4 89.3,57.2 127.6,79.4 "/>
<path id="XMLID_3_" class="st0" d="M89.3,101.5l38.3-22.1L89.3,101.5z"/>
<path id="XMLID_2_" class="st0" d="M89.3,101.5L50.9,79.4L89.3,101.5z"/>
<path id="XMLID_1_" class="st0" d="M89.3,145.8v-44.3V145.8z"/>
</svg>
